
<!-- Generator: Adobe Illustrator 19.0.0, SVG Export Plug-In . SVG Version: 6.00 Build 0)  -->
<svg version="1.1" id="Capa_1" xmlns="http://www.w3.org/2000/svg" xmlns:xlink="http://www.w3.org/1999/xlink" x="0px" y="0px"
	 viewBox="0 0 512 512" style="enable-background:new 0 0 512 512;" xml:space="preserve">
<path style="fill:#203A74;" d="M361.947,23.797C339.603,8.229,308.145,0,270.973,0c-37.171,0-68.629,8.229-90.974,23.797
	c-25.592,17.831-39.12,45.282-39.12,79.385v73.883c4.016-3.782,9.218-6.334,15-7.056v-66.827c0-29.394,11-51.962,32.695-67.077
	C208.391,22.298,236.884,15,270.973,15c34.09,0,62.583,7.298,82.398,21.104c21.694,15.115,32.693,37.683,32.693,67.077v66.827
	c5.782,0.721,10.984,3.272,15,7.055v-73.882C401.065,69.078,387.538,41.628,361.947,23.797z"/>
<g>
	<path style="fill:#F7931E;" d="M173.365,158.748h40.891c27.529,0,53.083-13.671,68.358-36.569c0.942-1.412,2.526-2.26,4.223-2.26
		c1.696,0,3.281,0.848,4.222,2.26c15.274,22.898,40.828,36.569,68.355,36.569h9.294c2.803,0,5.076,2.272,5.076,5.076V119.22
		c0-41.241-33.568-74.67-74.977-74.67h-55.539c-41.409,0-74.978,33.429-74.978,74.67v44.599
		C168.293,161.018,170.564,158.748,173.365,158.748z"/>
	<path style="fill:#F7931E;" d="M243.326,366.334v-33.057c0.006,0.002,0.013,0.004,0.02,0.005
		c-38.921-10.907-68.574-44.214-74.115-85.075h-9.991c-3.279,0-6.418-0.59-9.32-1.662c-5.457,5.656-8.814,13.352-8.814,21.833
		c0,15.971,11.9,29.153,27.315,31.187c1.776,31.338,22.959,57.49,51.765,66.77h23.14V366.334z"/>
	<path style="fill:#F7931E;" d="M391.356,246.777c-2.713,0.922-5.621,1.43-8.651,1.43h-9.862
		c-5.548,40.906-35.26,74.241-74.245,85.111c0.007-0.002,0.014-0.004,0.021-0.006v33.022h23.271
		c28.853-9.293,50.058-35.515,51.775-66.92c14.914-2.471,26.289-15.421,26.289-31.036
		C399.954,260.011,396.684,252.412,391.356,246.777z"/>
</g>
<path style="fill:#9EA7AF;" d="M382.705,168.392h-9.986v65.938c0,5.189-0.393,10.287-1.146,15.269h11.131
	c14.72,0,26.652-11.815,26.652-26.394v-28.422C409.357,180.207,397.425,168.392,382.705,168.392z"/>
<path style="fill:#FFC7A9;" d="M271.037,337.077c-56.655,0-102.747-46.093-102.747-102.747v-70.506c0-2.804,2.273-5.076,5.076-5.076
	h40.891c27.529,0,53.083-13.671,68.358-36.569c0.942-1.412,2.526-2.26,4.223-2.26c1.696,0,3.281,0.848,4.222,2.26
	c15.274,22.898,40.828,36.569,68.355,36.569h9.294c2.803,0,5.076,2.272,5.076,5.076v70.506
	C373.783,290.984,327.691,337.077,271.037,337.077z"/>
<g style="opacity:0.15;">
	<path style="fill:#440075;" d="M173.301,158.748h25.321v-39.527c0-41.241,33.569-74.67,74.978-74.67h-30.332
		c-41.409,0-74.978,33.429-74.978,74.67v43.964C168.608,160.686,170.717,158.748,173.301,158.748z"/>
</g>
<path style="fill:#9EA7AF;" d="M169.226,234.33v-65.938h-9.986c-14.719,0-26.652,11.815-26.652,26.392v28.422
	c0,14.578,11.933,26.394,26.652,26.394h11.131C169.618,244.617,169.226,239.519,169.226,234.33z"/>
<path style="fill:#6BC1DD;" d="M358.146,366.334h-34.588l-12.483,44.87c-0.749,2.689-3.645,4.89-6.436,4.89h-67.331
	c-2.792,0-5.688-2.2-6.436-4.89l-12.483-44.87H183.8c-16.791,0-30.453,13.662-30.453,30.453v110.138
	c0,2.803,2.272,5.075,5.076,5.075h225.1c2.804,0,5.076-2.272,5.076-5.075V396.787C388.598,379.996,374.936,366.334,358.146,366.334z
	"/>
<path style="fill:#FFB98A;" d="M298.619,333.313c-8.781,2.449-18.03,3.765-27.582,3.765c-9.598,0-18.892-1.327-27.711-3.8v33.057
	h-25.294l12.839,46.147c0.749,2.689,3.645,4.89,6.436,4.89h67.331c2.792,0,5.688-2.2,6.436-4.89l12.839-46.147h-25.294V333.313z"/>
<g style="opacity:0.15;">
	<path style="fill:#440075;" d="M182.853,506.925V396.787c0-16.791,13.662-30.453,30.453-30.453H183.8
		c-16.791,0-30.453,13.662-30.453,30.453v110.138c0,2.803,2.272,5.075,5.076,5.075h29.506
		C185.125,512,182.853,509.728,182.853,506.925z"/>
</g>
<g style="opacity:0.15;">
	<path style="fill:#440075;" d="M197.83,234.33v-70.506c0-2.804,2.272-5.076,5.075-5.076h-29.604c-2.803,0-5.076,2.272-5.076,5.076
		v70.506c0,56.654,46.092,102.747,102.747,102.747c5.026,0,9.967-0.37,14.802-1.07C236.108,328.809,197.83,285.959,197.83,234.33z"
		/>
</g>
<path style="fill:#D2957D;" d="M279.839,250.501h-8.867c-9.024,0-16.367-7.918-16.367-17.651v-24.977c0-4.143,3.358-7.5,7.5-7.5
	s7.5,3.357,7.5,7.5v24.977c0,1.711,1.026,2.651,1.367,2.651h8.867c4.142,0,7.5,3.357,7.5,7.5
	C287.339,247.144,283.981,250.501,279.839,250.501z"/>
<g>
	<path style="fill:#F7931E;" d="M243.518,192.641c-1.919,0-3.839-0.732-5.303-2.196c-4.46-4.46-10.383-6.916-16.679-6.916
		s-12.219,2.456-16.678,6.915c-2.929,2.93-7.677,2.929-10.607,0.001c-2.929-2.929-2.929-7.678,0-10.606
		c7.293-7.294,16.983-11.31,27.286-11.31c10.302,0,19.993,4.016,27.286,11.309c2.929,2.93,2.929,7.678,0,10.607
		C247.357,191.908,245.438,192.641,243.518,192.641z"/>
	<path style="fill:#F7931E;" d="M342.391,192.641c-1.919,0-3.839-0.732-5.303-2.196c-4.46-4.46-10.384-6.916-16.68-6.916
		s-12.22,2.456-16.679,6.915c-2.929,2.93-7.677,2.929-10.607,0.001c-2.929-2.929-2.929-7.678,0-10.606
		c7.293-7.294,16.983-11.31,27.286-11.31s19.993,4.016,27.286,11.309c2.929,2.93,2.929,7.678,0,10.607
		C346.23,191.908,344.31,192.641,342.391,192.641z"/>
</g>
<g>
	<path style="fill:#046699;" d="M221.538,237.305c-11.679,0-21.181-9.525-21.181-21.233s9.502-21.233,21.181-21.233
		c11.678,0,21.179,9.525,21.179,21.233C242.716,227.779,233.215,237.305,221.538,237.305z"/>
	<path style="fill:#046699;" d="M320.409,237.305c-11.679,0-21.181-9.525-21.181-21.233s9.502-21.233,21.181-21.233
		s21.18,9.525,21.18,21.233C341.589,227.779,332.089,237.305,320.409,237.305z"/>
</g>
<path style="fill:#C5CCD3;" d="M346.603,449.351v-13.049c0-1.676-1.37-3.046-3.045-3.046h-22.217c-1.675,0-3.045,1.37-3.045,3.046
	v13.049H346.603z"/>
<path style="fill:#FFFFFF;" d="M367.471,488.652c0,1.676-1.371,3.046-3.045,3.046h-63.951c-1.675,0-3.045-1.37-3.045-3.046v-37.558
	c0-1.676,1.371-3.046,3.045-3.046h63.951c1.675,0,3.045,1.37,3.045,3.046V488.652z"/>
<path style="fill:#9EA7AF;" d="M343.108,476.866h-21.317c-4.142,0-7.5-3.357-7.5-7.5s3.358-7.5,7.5-7.5h21.317
	c4.142,0,7.5,3.357,7.5,7.5S347.25,476.866,343.108,476.866z"/>
<path style="fill:#FB8276;" d="M262.132,316.088c-10.32,0-18.716-8.396-18.716-18.717v-28.129c0-2.348,1.904-4.251,4.252-4.251
	h46.611c2.348,0,4.252,1.903,4.252,4.251v28.129c0,10.32-8.396,18.717-18.717,18.717H262.132z"/>
<path style="fill:#FFFFFF;" d="M294.279,264.991h-46.611c-2.348,0-4.252,1.903-4.252,4.251v15.66h55.114v-15.66
	C298.53,266.895,296.626,264.991,294.279,264.991z"/>
<path style="fill:#203A74;" d="M186.75,328.12c0-2.45,0.518-4.776,1.438-6.887h-58.451c-6.669,0-12.094-5.425-12.094-12.093v-78.376
	c0-6.668,5.425-12.093,12.094-12.093h2.851v-15h-2.851c-14.94,0-27.094,12.153-27.094,27.093v78.376
	c0,14.94,12.154,27.093,27.094,27.093h59.042C187.487,333.815,186.75,331.055,186.75,328.12z"/>
<path style="fill:#135693;" d="M244.519,328.12c0,9.529-7.726,17.254-17.255,17.254h-24.49c-9.529,0-17.254-7.725-17.254-17.254l0,0
	c0-9.529,7.725-17.255,17.254-17.255h24.49C236.792,310.865,244.519,318.591,244.519,328.12L244.519,328.12z"/>
<circle style="fill:#FFC502;" cx="199.35" cy="447.03" r="16.749"/>
<g>
</g>
<g>
</g>
<g>
</g>
<g>
</g>
<g>
</g>
<g>
</g>
<g>
</g>
<g>
</g>
<g>
</g>
<g>
</g>
<g>
</g>
<g>
</g>
<g>
</g>
<g>
</g>
<g>
</g>
</svg>
