
<!-- Generator: Adobe Illustrator 19.0.0, SVG Export Plug-In . SVG Version: 6.00 Build 0)  -->
<svg version="1.1" id="Capa_1" xmlns="http://www.w3.org/2000/svg" xmlns:xlink="http://www.w3.org/1999/xlink" x="0px" y="0px"
	 viewBox="0 0 512.001 512.001" style="enable-background:new 0 0 512.001 512.001;" xml:space="preserve">
<path style="fill:#135693;" d="M230.715,24.765c9.577-2.566,19.308-4.642,29.022-6.223C257.798,7.994,248.562,0,237.454,0
	c-12.518,0-22.664,10.146-22.664,22.664c0,2.252,0.333,4.426,0.945,6.479C220.634,27.598,225.625,26.129,230.715,24.765z"/>
<path style="fill:#FFC7A9;" d="M255.997,318.258c-11.201,0-21.988-1.8-32.097-5.113V339h64.193v-25.855
	C277.985,316.458,267.198,318.258,255.997,318.258z"/>
<path style="opacity:0.15;fill:#440075;enable-background:new    ;" d="M223.9,313.145V339h30.036v-20.769
	C243.473,318.025,233.387,316.254,223.9,313.145z"/>
<path style="fill:#E6E9ED;" d="M255.997,318.258c-56.945,0-103.273-46.329-103.273-103.275V149.96l206.547-46.934v111.956
	C359.27,271.929,312.942,318.258,255.997,318.258z"/>
<path style="fill:#C0272D;" d="M306.475,360v-17.044c0-2.833-2.317-5.151-5.15-5.151h-88.596c-2.833,0-5.15,2.318-5.15,5.151V360
	H306.475z"/>
<path style="opacity:0.15;fill:#440075;enable-background:new    ;" d="M238.484,360v-17.044c0-2.833,2.317-5.151,5.15-5.151
	h-30.905c-2.833,0-5.15,2.318-5.15,5.151V360H238.484z"/>
<path style="fill:#E6E9ED;" d="M383.077,358.245h-254.16c-8.499,0-15.453,6.954-15.453,15.453v128
	c0,5.666,4.636,10.302,10.302,10.302h264.463c5.666,0,10.302-4.636,10.302-10.302v-128
	C398.53,365.199,391.577,358.245,383.077,358.245z"/>
<g>
	<rect x="113.467" y="373.88" style="fill:#312F56;" width="285.07" height="15"/>
	<rect x="113.467" y="400.62" style="fill:#312F56;" width="285.07" height="15"/>
	<rect x="113.467" y="427.36" style="fill:#312F56;" width="285.07" height="15"/>
	<rect x="113.467" y="454.11" style="fill:#312F56;" width="285.07" height="15"/>
	<rect x="113.467" y="480.85" style="fill:#312F56;" width="285.07" height="15"/>
</g>
<g style="opacity:0.15;">
	<path style="fill:#440075;" d="M142.971,501.698v-128c0-8.499,6.954-15.453,15.453-15.453h-29.507
		c-8.499,0-15.453,6.954-15.453,15.453v128c0,5.666,4.636,10.302,10.302,10.302h29.507C147.606,512,142.971,507.364,142.971,501.698
		z"/>
</g>
<g>
	<path style="fill:#FFC7A9;" d="M152.724,214.982v-45.914H139.5c-13.452,0-24.358,10.906-24.358,24.359v26.477
		c0,13.453,10.906,24.359,24.358,24.359h17.458C154.208,234.977,152.724,225.15,152.724,214.982z"/>
	<path style="fill:#FFC7A9;" d="M372.494,169.068H359.27v45.914c0,10.168-1.484,19.994-4.234,29.281h17.458
		c13.454,0,24.358-10.906,24.358-24.359v-26.477C396.852,179.975,385.948,169.068,372.494,169.068z"/>
</g>
<g>
	<path style="fill:#D19546;" d="M152.724,198.605h-14.178c-4.143,0-7.5,3.357-7.5,7.5s3.357,7.5,7.5,7.5h14.178V198.605z"/>
	<path style="fill:#D19546;" d="M373.448,198.605H359.27v15h14.178c4.143,0,7.5-3.357,7.5-7.5
		C380.948,201.962,377.591,198.605,373.448,198.605z"/>
</g>
<path style="fill:#E6E9ED;" d="M360.27,101.773l-208.547,47.389v65.82c0,57.59,46.686,104.275,104.273,104.275
	c57.59,0,104.273-46.686,104.273-104.275L360.27,101.773L360.27,101.773z"/>
<g style="opacity:0.15;">
	<path style="fill:#440075;" d="M175.192,214.982v-71.153l-23.469,5.333v65.82c0,57.59,46.686,104.275,104.273,104.275
		c3.968,0,7.881-0.23,11.734-0.661C215.669,312.765,175.192,268.604,175.192,214.982z"/>
</g>
<g>
	<path style="fill:#FFC502;" d="M354.564,249.073c-4.006-3.995-9.533-6.466-15.638-6.466c-12.232,0-22.148,9.917-22.148,22.149
		c0,9.962,6.579,18.386,15.629,21.171C342.163,275.425,349.78,262.91,354.564,249.073z"/>
	<path style="fill:#FFC502;" d="M179.587,285.928c9.05-2.785,15.63-11.207,15.63-21.171c0-12.232-9.917-22.149-22.149-22.149
		c-6.104,0-11.632,2.471-15.638,6.467C162.214,262.911,169.831,275.425,179.587,285.928z"/>
</g>
<g>
	<polygon style="fill:#775436;" points="360.269,101.773 316.026,111.827 360.27,156.072 	"/>
	<polygon style="fill:#775436;" points="360.269,101.773 316.026,111.827 360.27,156.072 	"/>
</g>
<path style="fill:#135693;" d="M263.813,102.062l-11.992,2.855c-41.167,9.817-77.1,17.944-99.904,17.944
	c-0.066,0-0.128-0.004-0.194-0.004v28.065l208.547-47.389V75.328C341.774,83.507,310.369,90.982,263.813,102.062z"/>
<path style="opacity:0.15;fill:#440075;enable-background:new    ;" d="M151.917,122.861c-0.066,0-0.128-0.004-0.194-0.004v28.065
	l29.65-6.738v-24.199C170.095,121.799,160.147,122.861,151.917,122.861z"/>
<path style="fill:#9EA7AF;" d="M264.995,233.462h-8.998c-9.097,0-16.498-7.985-16.498-17.802v-27.652c0-4.143,3.357-7.5,7.5-7.5
	s7.5,3.357,7.5,7.5v27.652c0,1.743,1.04,2.802,1.498,2.802h8.998c4.143,0,7.5,3.357,7.5,7.5
	C272.495,230.105,269.138,233.462,264.995,233.462z"/>
<g>
	<rect x="156.717" y="477.49" style="fill:#203A74;" width="29.02" height="34.511"/>
	<rect x="156.717" y="358.25" style="fill:#203A74;" width="29.02" height="83.44"/>
	<rect x="326.267" y="477.49" style="fill:#203A74;" width="29.02" height="34.511"/>
	<rect x="326.267" y="358.25" style="fill:#203A74;" width="29.02" height="83.44"/>
</g>
<g>
	<rect x="156.717" y="441.68" style="fill:#FFC502;" width="29.02" height="35.808"/>
	<rect x="326.267" y="441.68" style="fill:#FFC502;" width="29.02" height="35.808"/>
</g>
<path style="fill:#312F56;" d="M379.619,40.998c12.362,32.956-19.573,39.137-127.566,64.892
	c-83.785,19.981-125.837,27.755-133.353-0.296c-7.516-28.052,42.521-63.242,111.756-81.795
	C299.693,5.246,369.42,13.807,379.619,40.998z"/>
<g style="opacity:0.15;">
	<path style="fill:#030005;" d="M148.575,105.594c-7.516-28.052,42.521-63.242,111.756-81.795
		c19.529-5.233,39.096-8.308,57.356-9.416c-25.677-1.708-56.5,1.182-87.231,9.416C161.221,42.352,111.185,77.542,118.7,105.594
		c4.397,16.41,20.62,20.555,50.096,17.173C157.798,120.623,151.154,115.217,148.575,105.594z"/>
</g>
<path style="fill:#EF5050;" d="M233.12,272.696c0,12.636,10.241,22.877,22.877,22.877s22.877-10.241,22.877-22.877H233.12z"/>
<path style="fill:#C0272D;" d="M224.303,272.696c-0.903,0-1.762-0.395-2.349-1.083c-0.588-0.686-0.844-1.596-0.705-2.488
	c1.732-11.006,11.448-19.307,22.6-19.307c4.307,0,8.507,1.209,12.148,3.496l0,0c3.642-2.287,7.842-3.496,12.148-3.496
	c11.151,0,20.867,8.301,22.6,19.307c0.14,0.893-0.117,1.803-0.705,2.488c-0.587,0.688-1.445,1.083-2.349,1.083H224.303z"/>
<g>
	<path style="fill:#9EA7AF;" d="M201.728,171.101c6.21,0,11.865,2.413,16.094,6.349l-7.986-20.555
		c-1.713-4.399-5.312-5.967-8.109-5.967c-2.798,0-6.397,1.567-8.111,5.972l-7.984,20.55
		C189.86,173.514,195.517,171.101,201.728,171.101z"/>
	<path style="fill:#9EA7AF;" d="M201.728,218.604c-6.212,0-11.869-2.413-16.098-6.35l7.986,20.556
		c1.713,4.399,5.311,5.967,8.109,5.967s6.396-1.567,8.111-5.972l7.984-20.551C213.595,216.19,207.938,218.604,201.728,218.604z"/>
	<path style="fill:#9EA7AF;" d="M310.269,171.101c6.209,0,11.864,2.412,16.093,6.347l-7.985-20.553
		c-1.713-4.399-5.312-5.967-8.109-5.967c-2.798,0-6.397,1.567-8.111,5.972l-7.982,20.549
		C298.402,173.513,304.06,171.101,310.269,171.101z"/>
	<path style="fill:#9EA7AF;" d="M310.269,218.604c-6.211,0-11.868-2.413-16.097-6.349l7.985,20.555
		c1.713,4.399,5.312,5.967,8.109,5.967c2.798,0,6.396-1.567,8.111-5.972l7.983-20.549
		C322.135,216.191,316.479,218.604,310.269,218.604z"/>
</g>
<g>
	<path style="fill:#046699;" d="M201.728,219.604c-13.612,0-24.686-11.104-24.686-24.752c0-13.647,11.074-24.751,24.686-24.751
		c13.609,0,24.682,11.104,24.682,24.751C226.41,208.5,215.338,219.604,201.728,219.604z"/>
	<path style="fill:#046699;" d="M310.269,219.604c-13.612,0-24.687-11.104-24.687-24.752c0-13.647,11.074-24.751,24.687-24.751
		c13.61,0,24.683,11.104,24.683,24.751C334.952,208.5,323.88,219.604,310.269,219.604z"/>
</g>
<g>
</g>
<g>
</g>
<g>
</g>
<g>
</g>
<g>
</g>
<g>
</g>
<g>
</g>
<g>
</g>
<g>
</g>
<g>
</g>
<g>
</g>
<g>
</g>
<g>
</g>
<g>
</g>
<g>
</g>
</svg>
