
<!-- <?xml version="1.0" encoding="iso-8859-1"?> -->
<!-- Generator: Adobe Illustrator 19.0.0, SVG Export Plug-In . SVG Version: 6.00 Build 0)  -->
<svg version="1.1" id="Capa_1" xmlns="http://www.w3.org/2000/svg" xmlns:xlink="http://www.w3.org/1999/xlink" x="0px" y="0px"
	 viewBox="0 0 512 512" style="enable-background:new 0 0 512 512;" xml:space="preserve">
<path style="fill:#FFD9D4;" d="M97.882,162.339c-45.669,0-82.824-37.154-82.824-82.824c0-4.158-3.371-7.529-7.529-7.529
	S0,75.357,0,79.516c0,53.973,43.91,97.882,97.882,97.882h45.176v-15.059H97.882z"/>
<path style="fill:#FFB4A9;" d="M205.675,473.437l-24.97-8.324V267.749h-15.059v202.792c0,3.241,2.073,6.118,5.148,7.143
	l30.118,10.039c3.948,1.315,8.21-0.816,9.524-4.763C211.752,479.016,209.621,474.753,205.675,473.437z"/>
<path style="fill:#FFD9D4;" d="M145.44,473.439l-24.97-8.324V267.751h-15.059v202.792c0,3.241,2.073,6.118,5.148,7.143
	l30.118,10.039c3.948,1.315,8.21-0.816,9.524-4.763C151.517,479.018,149.386,474.755,145.44,473.439z"/>
<path style="fill:#2DADE3;" d="M454.275,272.363h-52.706v-15.059h52.706c23.527,0,42.667-19.14,42.667-42.667
	s-19.14-42.667-42.667-42.667h-52.706v-15.059h52.706c31.83,0,57.725,25.895,57.725,57.725S486.105,272.363,454.275,272.363z"/>
<path style="fill:#49C9FF;" d="M363.922,465.114l-24.97,8.323c-3.945,1.315-6.077,5.579-4.762,9.524s5.577,6.077,9.524,4.763
	l30.118-10.039c3.074-1.025,5.148-3.902,5.148-7.143V267.749h-15.059L363.922,465.114L363.922,465.114z"/>
<path style="fill:#2DADE3;" d="M424.157,267.751v197.365l-24.97,8.323c-3.945,1.315-6.077,5.579-4.762,9.524
	c1.315,3.945,5.577,6.077,9.524,4.763l30.118-10.039c3.074-1.025,5.148-3.902,5.148-7.143V267.751H424.157z"/>
<path style="fill:#FFE2A8;" d="M278.588,167.359c-16.634,0-30.118,13.484-30.118,30.118l-10.039,42.667l10.039,42.667l60.235-30.118
	v-85.333L278.588,167.359L278.588,167.359z"/>
<path style="fill:#FFF0D3;" d="M218.353,167.359h-30.118l-30.118,85.333l90.353,30.118v-85.333
	C248.471,180.842,234.987,167.359,218.353,167.359z"/>
<path style="fill:#FFCB63;" d="M218.353,252.692h-60.235v30.118h90.353C248.471,266.176,234.987,252.692,218.353,252.692z"/>
<path style="fill:#FFA754;" d="M278.588,252.692c-16.634,0-30.118,13.484-30.118,30.118h60.235v-30.118L278.588,252.692
	L278.588,252.692z"/>
<path style="fill:#A8E5FF;" d="M356.392,325.069c0,8.316,6.742,15.059,15.059,15.059c8.316,0,15.059-6.742,15.059-15.059v-45.176
	h-30.118V325.069z"/>
<path style="fill:#7DD9FF;" d="M416.627,279.892v45.176c0,8.316,6.742,15.059,15.059,15.059c8.316,0,15.059-6.742,15.059-15.059
	v-45.176H416.627z"/>
<polygon style="fill:#2DADE3;" points="394.039,209.618 424.157,294.945 454.275,294.951 454.275,264.834 "/>
<polygon style="fill:#49C9FF;" points="348.863,264.834 348.863,294.951 424.157,294.945 424.157,209.618 "/>
<path style="fill:#7DD9FF;" d="M434.196,144.363h-30.118l20.078,120.471h30.118V164.441
	C454.275,153.348,445.289,144.363,434.196,144.363z"/>
<path style="fill:#A8E5FF;" d="M424.157,164.441v100.386h-75.294V164.441c0-11.093,8.985-20.078,20.078-20.078h35.137
	C415.172,144.363,424.157,153.348,424.157,164.441z"/>
<g>
	<circle style="fill:#2DADE3;" cx="424.157" cy="204.599" r="7.529"/>
	<circle style="fill:#2DADE3;" cx="424.157" cy="234.717" r="7.529"/>
	<circle style="fill:#2DADE3;" cx="424.157" cy="174.482" r="7.529"/>
	<path style="fill:#2DADE3;" d="M401.569,23.886l15.059,90.353h30.118V69.063C446.745,44.112,426.519,23.886,401.569,23.886z"/>
</g>
<path style="fill:#49C9FF;" d="M401.569,23.886c-24.95,0-45.176,20.226-45.176,45.176v45.176h60.235V69.063
	C416.627,44.112,409.885,23.886,401.569,23.886z"/>
<path style="fill:#FFB4A9;" d="M318.745,205.006h-20.078c-4.158,0-7.529-3.371-7.529-7.529c0-4.158,3.371-7.529,7.529-7.529h20.078
	c4.158,0,7.529,3.371,7.529,7.529C326.275,201.635,322.903,205.006,318.745,205.006z"/>
<polygon style="fill:#CF301B;" points="188.235,327.986 158.118,327.986 128,267.751 188.235,297.869 "/>
<polygon style="fill:#FF4128;" points="158.118,327.986 82.824,327.986 82.824,297.869 158.118,267.751 "/>
<path style="fill:#60312C;" d="M158.118,73.664l-20.078,73.617h30.118c11.043,0,20.078-9.035,20.078-20.078V71.986L158.118,73.664z"
	/>
<path style="fill:#85453D;" d="M104.454,48.512l-32.307,53.015c-2.778,4.557-4.382,9.907-4.382,15.635
	c0,16.633,13.484,30.118,30.118,30.118h40.157c11.043,0,20.078-9.035,20.078-20.078V71.986L104.454,48.512z"/>
<path style="fill:#FFB4A9;" d="M157.206,56.473l-14.147,60.69c24.95,0,45.176-20.226,45.176-45.176L157.206,56.473z"/>
<path style="fill:#FFD9D4;" d="M158.118,71.986c0-5.45-0.322-10.676-0.912-15.514L115.95,35.846
	c-10.97,8.242-18.068,21.361-18.068,36.14c0,24.95,20.226,45.176,45.176,45.176C151.375,117.163,158.118,96.937,158.118,71.986z"/>
<path style="fill:#60312C;" d="M143.059,26.81l14.957,39.988c9.45,3.354,19.62,5.188,30.219,5.188
	C188.235,47.036,168.009,26.81,143.059,26.81z"/>
<path style="fill:#85453D;" d="M143.059,26.81c-10.172,0-19.557,3.363-27.109,9.037c10.573,14.075,25.164,24.953,42.065,30.952
	C157.158,44.293,150.79,26.81,143.059,26.81z"/>
<path style="fill:#FF6753;" d="M168.157,147.28h-30.118l20.078,150.588h30.118v-130.51
	C188.235,156.269,179.246,147.28,168.157,147.28z"/>
<path style="fill:#FF8D7E;" d="M138.039,147.28h-20.078c-11.089,0-20.078,8.989-20.078,20.078v70.275
	c-9.366,10.616-15.059,24.55-15.059,39.821v20.415h75.294v-130.51C158.118,156.269,149.129,147.28,138.039,147.28z"/>
<g>
</g>
<g>
</g>
<g>
</g>
<g>
</g>
<g>
</g>
<g>
</g>
<g>
</g>
<g>
</g>
<g>
</g>
<g>
</g>
<g>
</g>
<g>
</g>
<g>
</g>
<g>
</g>
<g>
</g>
</svg>
